<?xml version="1.0" encoding="UTF-8"?>
<svg width="1080px" height="630px" viewBox="0 0 1080 630" version="1.1" xmlns="http://www.w3.org/2000/svg" xmlns:xlink="http://www.w3.org/1999/xlink">
    <title>website-title</title>
    <g id="website-title" stroke="none" stroke-width="1" fill="none" fill-rule="evenodd">
        <g id="Title" transform="translate(81.080000, 38.000000)">
            <g id="title" transform="translate(-0.000000, 0.000000)">
                <path d="M842.8,282.4 C890.8,282.4 929.2,244.24 929.2,196.24 C929.2,148.24 890.8,109.6 842.8,109.6 C794.8,109.6 756.64,148.24 756.64,196.24 C756.64,244.24 794.8,282.4 842.8,282.4 Z M842.8,244 C816.64,244 795.04,222.4 795.04,196.24 C795.04,169.84 816.64,148 842.8,148 C869.2,148 890.8,169.84 890.8,196.24 C890.8,222.4 869.2,244 842.8,244 Z" id="O" fill="#FFFFFF" fill-rule="nonzero"></path>
                <path d="M576.92,11.5470054 L710.125081,88.4529946 C722.501124,95.5983064 730.125081,108.803387 730.125081,123.094011 L730.125081,276.905989 C730.125081,291.196613 722.501124,304.401694 710.125081,311.547005 L576.92,388.452995 C564.543957,395.598306 549.296043,395.598306 536.92,388.452995 L403.714919,311.547005 C391.338876,304.401694 383.714919,291.196613 383.714919,276.905989 L383.714919,123.094011 C383.714919,108.803387 391.338876,95.5983064 403.714919,88.4529946 L536.92,11.5470054 C549.296043,4.40169359 564.543957,4.40169359 576.92,11.5470054 Z" id="Polygon" fill="#FFFFFF"></path>
                <g id="R" transform="translate(383.714919, 6.188022)" fill="#4D2C91">
                    <path d="M193.205081,5.35898385 L326.410162,82.2649731 C338.786205,89.4102849 346.410162,102.615366 346.410162,116.905989 L346.410162,270.717968 C346.410162,285.008591 338.786205,298.213672 326.410162,305.358984 L193.205081,382.264973 C180.829038,389.410285 165.581124,389.410285 153.205081,382.264973 L20,305.358984 C7.62395693,298.213672 -2.84217094e-14,285.008591 -3.55271368e-15,270.717968 L-1.77635684e-14,116.905989 C-1.0658141e-14,102.615366 7.62395693,89.4102849 20,82.2649731 L153.205081,5.35898385 C165.581124,-1.78632795 180.829038,-1.78632795 193.205081,5.35898385 Z M139.905081,292.811978 C142.905081,292.811978 145.605081,290.111978 145.605081,287.111978 L145.605081,210.611978 L166.305081,210.611978 L206.205081,290.111978 C206.805081,291.311978 208.605081,292.811978 211.005081,292.811978 L250.905081,292.811978 C256.005081,292.811978 258.105081,288.011978 256.005081,284.111978 L214.905081,207.911978 C241.005081,197.411978 259.305081,175.211978 259.305081,147.611978 C259.305081,111.911978 229.905081,82.8119785 193.905081,82.8119785 L104.205081,82.8119785 C100.905081,82.8119785 98.5050808,85.5119785 98.5050808,88.5119785 L98.5050808,287.111978 C98.5050808,290.111978 100.905081,292.811978 104.205081,292.811978 L139.905081,292.811978 Z M190.005081,172.511978 L145.605081,172.511978 L145.605081,125.711978 L190.005081,125.711978 C202.305081,125.711978 212.805081,135.911978 212.805081,148.511978 C212.805081,161.111978 202.305081,172.511978 190.005081,172.511978 Z" id="Combined-Shape"></path>
                </g>
                <path d="M33.36,273.811978 C35.76,273.811978 37.92,271.651978 37.92,269.251978 L37.92,110.371978 C37.92,107.971978 35.76,105.811978 33.36,105.811978 L4.56,105.811978 C2.16,105.811978 0,107.971978 0,110.371978 L0,269.251978 C0,271.651978 2.16,273.811978 4.56,273.811978 L33.36,273.811978 Z M218.88,276.211978 C221.28,276.211978 223.44,274.291978 223.44,271.891978 L223.44,110.371978 C223.44,107.971978 221.28,105.811978 218.88,105.811978 L190.08,105.811978 C187.44,105.811978 185.52,107.971978 185.52,110.371978 L185.52,195.571978 L185.28,195.571978 L185.28,195.571978 L89.52,103.411978 L83.52,103.411978 C81.12,103.411978 78.96,105.331978 78.96,107.731978 L79.2,269.251978 C79.2,271.651978 81.36,273.811978 83.76,273.811978 L112.32,273.811978 C114.96,273.811978 116.88,271.651978 116.88,269.251978 L116.88,179.731978 L117.12,179.731978 L117.12,179.731978 L211.92,275.011978 C212.4,275.491978 214.32,276.211978 215.04,276.211978 L218.88,276.211978 Z M319.68,273.811978 C322.08,273.811978 324.24,271.651978 324.24,269.251978 L324.24,141.091978 L358.56,141.091978 C361.2,141.091978 363.12,138.931978 363.12,136.531978 L363.12,110.371978 C363.12,107.971978 361.2,105.811978 358.56,105.811978 L252,105.811978 C249.36,105.811978 247.44,107.971978 247.44,110.371978 L247.44,136.531978 C247.44,138.931978 249.36,141.091978 252,141.091978 L286.32,141.091978 L286.32,269.251978 C286.32,271.651978 288.48,273.811978 290.88,273.811978 L319.68,273.811978 Z" id="INT" fill="#FFFFFF" fill-rule="nonzero"></path>
            </g>
        </g>
        <g id="Subtitle" transform="translate(58.000000, 481.000000)">
            <rect id="Rectangle" fill="#4D2C91" x="0" y="0" width="963" height="126" rx="18"></rect>
            <path d="M76.7043,93 C93.7269,93 107.6625,79.1526 107.6625,62.0418 C107.6625,45.1074 93.7269,31.26 76.7043,31.26 L55.8009,31.26 C54.9189,31.26 54.2133,32.0538 54.2133,32.9358 L54.2133,91.3242 C54.2133,92.2062 54.9189,93 55.8009,93 L76.7043,93 Z M75.6459,82.2396 L65.5911,82.2396 L65.5911,41.9322 L75.6459,41.9322 C87.1119,41.9322 95.4909,50.5758 95.4909,62.0418 C95.4909,73.596 87.1119,82.2396 75.6459,82.2396 Z M124.2441,93.882 C129.7125,93.882 132.9759,91.236 135.0045,89.3838 L136.0629,91.7652 C136.5039,92.7354 136.9449,93 137.5623,93 L140.7375,93 C141.6195,93 142.4133,92.2062 142.4133,91.3242 L142.4133,72.1848 C142.4133,62.571 139.8555,56.838 128.8305,56.838 C123.1857,56.838 117.5409,58.2492 116.8353,58.5138 C116.0415,58.7784 115.3359,59.3958 115.6005,60.7188 L116.3943,65.3052 C116.5707,66.4518 117.1881,67.2456 118.4229,66.8928 C120.4515,66.2754 125.0379,65.5698 128.3013,65.5698 C131.5647,65.5698 132.9759,67.1574 132.8877,71.6556 C132.8877,71.6556 129.9771,70.6854 126.4491,70.6854 C117.4527,70.6854 112.3371,75.5364 112.3371,81.7986 C112.3371,89.2956 117.1881,93.882 124.2441,93.882 Z M126.6255,86.385 C123.8913,86.385 122.0391,84.4446 122.0391,81.7986 C122.0391,78.9762 124.3323,77.0358 127.7721,77.0358 C130.3299,77.0358 132.7113,78.0942 132.7113,78.0942 L132.7113,82.9452 C132.1821,84.0036 129.4479,86.385 126.6255,86.385 Z M164.1987,93.882 C168.5205,93.882 174.2535,91.8534 174.6945,91.5888 C175.5765,91.236 176.0175,90.354 175.6647,89.472 L173.9007,83.9154 C173.6361,83.0334 172.9305,82.5924 171.9603,82.9452 C170.9901,83.298 169.1379,83.9154 167.6385,83.9154 C166.2273,83.9154 164.9043,83.5626 164.9043,81.093 L164.9043,66.981 L172.6659,66.981 C173.6361,66.981 174.3417,66.1872 174.3417,65.3052 L174.3417,59.3958 C174.3417,58.4256 173.6361,57.72 172.6659,57.72 L164.9043,57.72 L164.9043,47.8416 C164.9043,46.9596 164.1987,46.1658 163.3167,46.1658 L156.0843,46.254 C155.2023,46.254 154.4085,47.0478 154.4085,47.9298 L154.4085,57.72 L151.4097,57.72 C150.5277,57.72 149.8221,58.4256 149.8221,59.3958 L149.8221,65.3052 C149.8221,66.1872 150.5277,66.981 151.4097,66.981 L154.4085,66.981 L154.4085,82.5042 C154.4085,89.6484 157.4073,93.882 164.1987,93.882 Z M192.3345,93.882 C197.8029,93.882 201.0663,91.236 203.0949,89.3838 L204.1533,91.7652 C204.5943,92.7354 205.0353,93 205.6527,93 L208.8279,93 C209.7099,93 210.5037,92.2062 210.5037,91.3242 L210.5037,72.1848 C210.5037,62.571 207.9459,56.838 196.9209,56.838 C191.2761,56.838 185.6313,58.2492 184.9257,58.5138 C184.1319,58.7784 183.4263,59.3958 183.6909,60.7188 L184.4847,65.3052 C184.6611,66.4518 185.2785,67.2456 186.5133,66.8928 C188.5419,66.2754 193.1283,65.5698 196.3917,65.5698 C199.6551,65.5698 201.0663,67.1574 200.9781,71.6556 C200.9781,71.6556 198.0675,70.6854 194.5395,70.6854 C185.5431,70.6854 180.4275,75.5364 180.4275,81.7986 C180.4275,89.2956 185.2785,93.882 192.3345,93.882 Z M194.7159,86.385 C191.9817,86.385 190.1295,84.4446 190.1295,81.7986 C190.1295,78.9762 192.4227,77.0358 195.8625,77.0358 C198.4203,77.0358 200.8017,78.0942 200.8017,78.0942 L200.8017,82.9452 C200.2725,84.0036 197.5383,86.385 194.7159,86.385 Z M253.4571,93.882 C254.2509,93.882 254.6919,93.441 254.9565,93 L271.0971,59.8368 C271.7145,58.6902 271.1853,57.72 269.8623,57.72 L262.9827,57.72 C262.0125,57.72 261.3069,57.8082 260.8659,58.6902 L253.2807,75.0954 L253.1043,75.0954 L253.1043,75.0954 L245.9601,58.6902 C245.6955,58.161 245.2545,57.72 244.3725,57.72 L236.6991,57.72 C235.3761,57.72 234.9351,58.6902 235.4643,59.8368 L251.5167,93 C251.7813,93.441 252.2223,93.882 253.0161,93.882 L253.4571,93.882 Z M282.2103,45.1956 C285.6501,45.1956 288.3843,42.4614 288.3843,39.1098 C288.3843,35.7582 285.6501,33.024 282.2103,33.024 C278.8587,33.024 276.2127,35.7582 276.2127,39.1098 C276.2127,42.4614 278.8587,45.1956 282.2103,45.1956 Z M286.0029,93 C286.8849,93 287.6787,92.2062 287.6787,91.3242 L287.6787,59.3958 C287.6787,58.4256 286.8849,57.72 286.0029,57.72 L278.6823,57.72 C277.8003,57.72 277.0065,58.4256 277.0065,59.3958 L277.0065,91.3242 C277.0065,92.2062 277.8003,93 278.6823,93 L286.0029,93 Z M308.5821,93.882 C317.4903,93.882 322.6059,88.9428 322.6059,83.1216 C322.6059,76.242 317.4903,73.3314 310.6989,70.6854 C307.4355,69.3624 305.8479,68.8332 305.8479,67.2456 C305.8479,66.099 306.7299,65.217 308.8467,65.217 C312.1983,65.217 316.1673,67.0692 316.1673,67.0692 C316.8729,67.3338 317.8431,67.2456 318.2841,66.4518 L320.4891,61.9536 C320.9301,61.0716 320.4891,60.1014 319.6953,59.5722 C317.8431,58.3374 314.0505,56.838 308.8467,56.838 C299.8503,56.838 295.8813,61.8654 295.8813,67.2456 C295.8813,72.6258 299.0565,76.242 305.8479,78.888 C310.5225,80.7402 311.7573,81.7104 311.7573,83.298 C311.7573,84.7974 310.5225,85.503 308.7585,85.503 C304.885718,85.503 301.0933,83.5742628 300.756537,83.3989231 L300.7323,83.3862 L300.7323,83.3862 C299.9385,82.9452 299.0565,83.1216 298.7037,84.0036 L296.3223,88.7664 C295.9695,89.472 296.3223,90.1776 296.8515,90.6186 C298.7037,92.0298 302.7609,93.882 308.5821,93.882 Z M344.6559,93.882 C351.6237,93.882 354.8871,90.1776 356.4747,88.7664 L357.5331,91.677 C357.7977,92.3826 358.3269,93 359.2089,93 L362.4723,93 C363.3543,93 364.1481,92.2062 364.1481,91.3242 L364.1481,59.3958 C364.1481,58.4256 363.3543,57.72 362.4723,57.72 L355.7691,57.72 C354.3579,57.72 353.8287,58.0728 353.8287,59.3958 L353.8287,77.7414 C353.2995,80.9166 350.4771,84.3564 346.7727,84.3564 C342.7155,84.3564 340.3341,81.4458 340.3341,76.7712 L340.3341,59.3958 C340.3341,58.4256 339.5403,57.72 338.6583,57.72 L331.4259,57.72 C330.5439,57.72 329.7501,58.4256 329.7501,59.3958 L329.7501,76.5066 C329.7501,85.503 333.7191,93.882 344.6559,93.882 Z M384.0813,93.882 C389.5497,93.882 392.8131,91.236 394.8417,89.3838 L395.9001,91.7652 C396.3411,92.7354 396.7821,93 397.3995,93 L400.5747,93 C401.4567,93 402.2505,92.2062 402.2505,91.3242 L402.2505,72.1848 C402.2505,62.571 399.6927,56.838 388.6677,56.838 C383.0229,56.838 377.3781,58.2492 376.6725,58.5138 C375.8787,58.7784 375.1731,59.3958 375.4377,60.7188 L376.2315,65.3052 C376.4079,66.4518 377.0253,67.2456 378.2601,66.8928 C380.2887,66.2754 384.8751,65.5698 388.1385,65.5698 C391.4019,65.5698 392.8131,67.1574 392.7249,71.6556 C392.7249,71.6556 389.8143,70.6854 386.2863,70.6854 C377.2899,70.6854 372.1743,75.5364 372.1743,81.7986 C372.1743,89.2956 377.0253,93.882 384.0813,93.882 Z M386.4627,86.385 C383.7285,86.385 381.8763,84.4446 381.8763,81.7986 C381.8763,78.9762 384.1695,77.0358 387.6093,77.0358 C390.1671,77.0358 392.5485,78.0942 392.5485,78.0942 L392.5485,82.9452 C392.0193,84.0036 389.2851,86.385 386.4627,86.385 Z M421.4781,93 C422.3601,93 423.1539,92.2062 423.1539,91.3242 L423.1539,32.9358 C423.1539,32.0538 422.3601,31.26 421.4781,31.26 L414.0693,31.26 C413.1873,31.26 412.3935,32.0538 412.3935,32.9358 L412.3935,91.3242 C412.3935,92.2062 413.1873,93 414.0693,93 L421.4781,93 Z M438.9417,45.1956 C442.3815,45.1956 445.1157,42.4614 445.1157,39.1098 C445.1157,35.7582 442.3815,33.024 438.9417,33.024 C435.5901,33.024 432.9441,35.7582 432.9441,39.1098 C432.9441,42.4614 435.5901,45.1956 438.9417,45.1956 Z M442.7343,93 C443.6163,93 444.4101,92.2062 444.4101,91.3242 L444.4101,59.3958 C444.4101,58.4256 443.6163,57.72 442.7343,57.72 L435.4137,57.72 C434.5317,57.72 433.7379,58.4256 433.7379,59.3958 L433.7379,91.3242 C433.7379,92.2062 434.5317,93 435.4137,93 L442.7343,93 Z M465.3135,93.882 C474.2217,93.882 479.3373,88.9428 479.3373,83.1216 C479.3373,76.242 474.2217,73.3314 467.4303,70.6854 C464.1669,69.3624 462.5793,68.8332 462.5793,67.2456 C462.5793,66.099 463.4613,65.217 465.5781,65.217 C468.9297,65.217 472.8987,67.0692 472.8987,67.0692 C473.6043,67.3338 474.5745,67.2456 475.0155,66.4518 L477.2205,61.9536 C477.6615,61.0716 477.2205,60.1014 476.4267,59.5722 C474.5745,58.3374 470.7819,56.838 465.5781,56.838 C456.5817,56.838 452.6127,61.8654 452.6127,67.2456 C452.6127,72.6258 455.7879,76.242 462.5793,78.888 C467.2539,80.7402 468.4887,81.7104 468.4887,83.298 C468.4887,84.7974 467.2539,85.503 465.4899,85.503 C461.985955,85.503 458.547795,83.9241471 457.675271,83.4935509 L457.517823,83.4143796 C457.505932,83.4082666 457.495955,83.4030978 457.487937,83.3989231 L457.4637,83.3862 L457.4637,83.3862 C456.6699,82.9452 455.7879,83.1216 455.4351,84.0036 L453.0537,88.7664 C452.7009,89.472 453.0537,90.1776 453.5829,90.6186 C455.4351,92.0298 459.4923,93.882 465.3135,93.882 Z M496.4481,93.882 C501.9165,93.882 505.1799,91.236 507.2085,89.3838 L508.2669,91.7652 C508.7079,92.7354 509.1489,93 509.7663,93 L512.9415,93 C513.8235,93 514.6173,92.2062 514.6173,91.3242 L514.6173,72.1848 C514.6173,62.571 512.0595,56.838 501.0345,56.838 C495.3897,56.838 489.7449,58.2492 489.0393,58.5138 C488.2455,58.7784 487.5399,59.3958 487.8045,60.7188 L488.5983,65.3052 C488.7747,66.4518 489.3921,67.2456 490.6269,66.8928 C492.6555,66.2754 497.2419,65.5698 500.5053,65.5698 C503.7687,65.5698 505.1799,67.1574 505.0917,71.6556 C505.0917,71.6556 502.1811,70.6854 498.6531,70.6854 C489.6567,70.6854 484.5411,75.5364 484.5411,81.7986 C484.5411,89.2956 489.3921,93.882 496.4481,93.882 Z M498.8295,86.385 C496.0953,86.385 494.2431,84.4446 494.2431,81.7986 C494.2431,78.9762 496.5363,77.0358 499.9761,77.0358 C502.5339,77.0358 504.9153,78.0942 504.9153,78.0942 L504.9153,82.9452 C504.3861,84.0036 501.6519,86.385 498.8295,86.385 Z M536.4027,93.882 C540.7245,93.882 546.4575,91.8534 546.8985,91.5888 C547.7805,91.236 548.2215,90.354 547.8687,89.472 L546.1047,83.9154 C545.8401,83.0334 545.1345,82.5924 544.1643,82.9452 C543.1941,83.298 541.3419,83.9154 539.8425,83.9154 C538.4313,83.9154 537.1083,83.5626 537.1083,81.093 L537.1083,66.981 L544.8699,66.981 C545.8401,66.981 546.5457,66.1872 546.5457,65.3052 L546.5457,59.3958 C546.5457,58.4256 545.8401,57.72 544.8699,57.72 L537.1083,57.72 L537.1083,47.8416 C537.1083,46.9596 536.4027,46.1658 535.5207,46.1658 L528.2883,46.254 C527.4063,46.254 526.6125,47.0478 526.6125,47.9298 L526.6125,57.72 L523.6137,57.72 C522.7317,57.72 522.0261,58.4256 522.0261,59.3958 L522.0261,65.3052 C522.0261,66.1872 522.7317,66.981 523.6137,66.981 L526.6125,66.981 L526.6125,82.5042 C526.6125,89.6484 529.6113,93.882 536.4027,93.882 Z M560.3931,45.1956 C563.8329,45.1956 566.5671,42.4614 566.5671,39.1098 C566.5671,35.7582 563.8329,33.024 560.3931,33.024 C557.0415,33.024 554.3955,35.7582 554.3955,39.1098 C554.3955,42.4614 557.0415,45.1956 560.3931,45.1956 Z M564.1857,93 C565.0677,93 565.8615,92.2062 565.8615,91.3242 L565.8615,59.3958 C565.8615,58.4256 565.0677,57.72 564.1857,57.72 L556.8651,57.72 C555.9831,57.72 555.1893,58.4256 555.1893,59.3958 L555.1893,91.3242 C555.1893,92.2062 555.9831,93 556.8651,93 L564.1857,93 Z M591.7923,93.882 C601.7589,93.882 609.8733,85.4148 609.8733,75.2718 C609.8733,65.3052 601.7589,56.838 591.7923,56.838 C581.8257,56.838 573.7113,65.3052 573.7113,75.2718 C573.7113,85.4148 581.8257,93.882 591.7923,93.882 Z M591.7923,84.3564 C587.0295,84.3564 583.3251,80.2992 583.3251,75.2718 C583.3251,70.3326 587.0295,66.3636 591.7923,66.3636 C596.4669,66.3636 600.2595,70.3326 600.2595,75.2718 C600.2595,80.2992 596.4669,84.3564 591.7923,84.3564 Z M625.9257,93 C627.6015,93 628.1307,92.559 628.1307,91.3242 L628.1307,71.9202 C629.0127,69.5388 631.8351,66.3636 636.4215,66.3636 C640.6551,66.3636 643.0365,69.2742 643.0365,73.8606 L643.0365,91.3242 C643.0365,92.2062 643.7421,93 644.7123,93 L651.9447,93 C652.8267,93 653.6205,92.2062 653.6205,91.3242 L653.6205,74.3898 C653.6205,65.217 649.1223,56.838 637.9209,56.838 C631.1295,56.838 626.8077,60.6306 625.4847,62.0418 L624.2499,58.7784 C623.9853,58.161 623.5443,57.72 622.7505,57.72 L619.3989,57.72 C618.5169,57.72 617.7231,58.4256 617.7231,59.3958 L617.7231,91.3242 C617.7231,92.2062 618.5169,93 619.3989,93 L625.9257,93 Z M692.2521,93.882 C692.9577,93.882 693.3987,93.5292 693.6633,93.0882 L704.6883,72.5376 L704.7765,72.5376 L704.7765,72.5376 L715.8897,93.0882 C716.1543,93.5292 716.5953,93.882 717.3009,93.882 L717.6537,93.882 C718.5357,93.882 719.0649,93.441 719.2413,92.9118 L730.2663,59.7486 C730.7073,58.602 729.9135,57.72 728.6787,57.72 L722.9457,57.72 C721.9755,57.72 721.2699,57.8082 720.9171,58.7784 L715.6251,74.5662 L715.5369,74.5662 L715.5369,74.5662 L706.6287,57.6318 C706.3641,57.1908 706.0113,56.838 705.2175,56.838 L704.5119,56.838 C703.7181,56.838 703.2771,57.279 703.1007,57.6318 L694.1043,74.5662 L694.0161,74.5662 L694.0161,74.5662 L688.7241,58.7784 C688.5477,58.161 687.6657,57.72 687.1365,57.72 L680.7861,57.72 C679.5513,57.72 678.7575,58.602 679.2867,59.7486 L690.3117,92.9118 C690.4881,93.441 691.0173,93.882 691.8111,93.882 L692.2521,93.882 Z M742.5261,45.1956 C745.9659,45.1956 748.7001,42.4614 748.7001,39.1098 C748.7001,35.7582 745.9659,33.024 742.5261,33.024 C739.1745,33.024 736.5285,35.7582 736.5285,39.1098 C736.5285,42.4614 739.1745,45.1956 742.5261,45.1956 Z M746.3187,93 C747.2007,93 747.9945,92.2062 747.9945,91.3242 L747.9945,59.3958 C747.9945,58.4256 747.2007,57.72 746.3187,57.72 L738.9981,57.72 C738.1161,57.72 737.3223,58.4256 737.3223,59.3958 L737.3223,91.3242 C737.3223,92.2062 738.1161,93 738.9981,93 L746.3187,93 Z M770.2209,93.882 C774.5427,93.882 780.2757,91.8534 780.7167,91.5888 C781.5987,91.236 782.0397,90.354 781.6869,89.472 L779.9229,83.9154 C779.6583,83.0334 778.9527,82.5924 777.9825,82.9452 C777.0123,83.298 775.1601,83.9154 773.6607,83.9154 C772.2495,83.9154 770.9265,83.5626 770.9265,81.093 L770.9265,66.981 L778.6881,66.981 C779.6583,66.981 780.3639,66.1872 780.3639,65.3052 L780.3639,59.3958 C780.3639,58.4256 779.6583,57.72 778.6881,57.72 L770.9265,57.72 L770.9265,47.8416 C770.9265,46.9596 770.2209,46.1658 769.3389,46.1658 L762.1065,46.254 C761.2245,46.254 760.4307,47.0478 760.4307,47.9298 L760.4307,57.72 L757.4319,57.72 C756.5499,57.72 755.8443,58.4256 755.8443,59.3958 L755.8443,65.3052 C755.8443,66.1872 756.5499,66.981 757.4319,66.981 L760.4307,66.981 L760.4307,82.5042 C760.4307,89.6484 763.4295,93.882 770.2209,93.882 Z M798.0039,93 C799.3269,93 799.8561,92.2944 799.8561,91.3242 L799.8561,72.6258 C800.7381,69.0096 803.4723,66.3636 807.5295,66.3636 C811.7631,66.3636 814.4973,69.4506 814.4973,74.3016 L814.4973,91.3242 C814.4973,92.2062 815.2029,93 816.1731,93 L823.3173,93 C824.1993,93 824.9931,92.2062 824.9931,91.3242 L824.9931,74.3898 C824.9931,65.4816 820.4067,56.838 809.2053,56.838 C805.0599,56.838 801.6201,58.4256 799.8561,59.7486 L799.8561,32.9358 C799.8561,32.0538 799.0623,31.26 798.1803,31.26 L790.6833,31.26 C789.8013,31.26 789.0075,32.0538 789.0075,32.9358 L789.0075,91.3242 C789.0075,92.2062 789.8013,93 790.6833,93 L798.0039,93 Z M866.8881,93 C867.7701,93 868.5639,92.2062 868.5639,91.3242 L868.5639,68.8332 L878.3541,68.8332 L890.0847,92.2062 C890.2611,92.559 890.7021,93 891.4959,93 L900.7569,93 C902.2563,93 902.8737,91.5888 902.2563,90.4422 L890.1729,68.0394 C897.8463,64.9524 903.2265,58.3374 903.2265,50.223 C903.2265,39.7272 894.5829,31.26 883.9989,31.26 L858.7737,31.26 C857.8035,31.26 857.0979,32.0538 857.0979,32.9358 L857.0979,91.3242 C857.0979,92.2062 857.8035,93 858.7737,93 L866.8881,93 Z M883.0287,59.3958 L868.6521,59.3958 L868.6521,41.844 L883.0287,41.844 C887.7033,41.844 891.7605,45.7248 891.7605,50.3994 C891.7605,55.3386 887.7033,59.3958 883.0287,59.3958 Z" id="DatavisualisationwithR" fill="#FFFFFF" fill-rule="nonzero"></path>
        </g>
    </g>
</svg>